<svg width="31" height="30" viewBox="0 0 31 30" fill="none" xmlns="http://www.w3.org/2000/svg">
<path d="M15.6667 27.5C22.5702 27.5 28.1667 21.9036 28.1667 15C28.1667 8.09644 22.5702 2.5 15.6667 2.5C8.7631 2.5 3.16666 8.09644 3.16666 15C3.16666 21.9036 8.7631 27.5 15.6667 27.5Z" fill="#0B0A2F"/>
<path d="M13.8917 19.475C13.6417 19.475 13.4042 19.375 13.2292 19.2L9.69166 15.6625C9.32916 15.3 9.32916 14.7 9.69166 14.3375C10.0542 13.975 10.6542 13.975 11.0167 14.3375L13.8917 17.2125L20.3167 10.7875C20.6792 10.425 21.2792 10.425 21.6417 10.7875C22.0042 11.15 22.0042 11.75 21.6417 12.1125L14.5542 19.2C14.3792 19.375 14.1417 19.475 13.8917 19.475Z" fill="white"/>
</svg>
